<svg width="215" height="215" viewBox="0 0 215 215" fill="none" xmlns="http://www.w3.org/2000/svg">
<g filter="url(#filter0_d)">
<path d="M93.6543 8.6267C99.9855 -1.7197 115.015 -1.7197 121.346 8.6267C125.857 15.9987 135.353 18.5433 142.946 14.4145C153.602 8.61979 166.618 16.1343 166.927 28.2602C167.148 36.9001 174.1 43.8519 182.74 44.0726C194.866 44.3824 202.38 57.3979 196.586 68.0541C192.457 75.6468 195.001 85.1432 202.373 89.6543C212.72 95.9855 212.72 111.015 202.373 117.346C195.001 121.857 192.457 131.353 196.586 138.946C202.38 149.602 194.866 162.618 182.74 162.927C174.1 163.148 167.148 170.1 166.927 178.74C166.618 190.866 153.602 198.38 142.946 192.586C135.353 188.457 125.857 191.001 121.346 198.373C115.015 208.72 99.9855 208.72 93.6543 198.373C89.1432 191.001 79.6468 188.457 72.0541 192.586C61.3979 198.38 48.3824 190.866 48.0726 178.74C47.8519 170.1 40.9001 163.148 32.2602 162.927C20.1343 162.618 12.6198 149.602 18.4145 138.946C22.5433 131.353 19.9987 121.857 12.6267 117.346C2.2803 111.015 2.2803 95.9855 12.6267 89.6543C19.9987 85.1432 22.5433 75.6468 18.4145 68.0541C12.6198 57.3979 20.1343 44.3824 32.2602 44.0726C40.9001 43.8519 47.8519 36.9001 48.0726 28.2602C48.3824 16.1343 61.3979 8.61979 72.0541 14.4145C79.6468 18.5433 89.1432 15.9987 93.6543 8.6267Z" fill="#FFF59F"/>
</g>
<defs>
<filter id="filter0_d" x="0.866901" y="0.866882" width="213.266" height="213.266" filterUnits="userSpaceOnUse" color-interpolation-filters="sRGB">
<feFlood flood-opacity="0" result="BackgroundImageFix"/>
<feColorMatrix in="SourceAlpha" type="matrix" values="0 0 0 0 0 0 0 0 0 0 0 0 0 0 0 0 0 0 127 0"/>
<feOffset dy="4"/>
<feGaussianBlur stdDeviation="2"/>
<feColorMatrix type="matrix" values="0 0 0 0 0 0 0 0 0 0 0 0 0 0 0 0 0 0 0.25 0"/>
<feBlend mode="normal" in2="BackgroundImageFix" result="effect1_dropShadow"/>
<feBlend mode="normal" in="SourceGraphic" in2="effect1_dropShadow" result="shape"/>
</filter>
</defs>
</svg>
